<svg width="720" height="720" viewBox="0 0 720 720" fill="none" xmlns="http://www.w3.org/2000/svg">
<path fill-rule="evenodd" clip-rule="evenodd" d="M110 0 L610 0 C670.75 0 720 49.25 720 110 L720 610 C720 670.75 670.75 720 610 720 L110 720 C49.25 720 0 670.75 0 610 L0 110 C0 49.25 49.25 0 110 0 Z M230.922 69.4651C219.562 59.7195 198.24 51.6693 183.147 53.0843C160.669 55.4469 153.405 62.8453 135.612 75.5305C127.433 81.4106 118.746 86.5509 109.655 90.8899C84.2028 102.742 52.2314 102.006 42.6758 134.5C35.2014 159.917 34.391 193.376 37.3516 219.64C46.3142 299.146 108.654 249.098 135.496 212.657C142.719 202.71 149.093 192.173 154.548 181.158C161.495 167.433 179.821 117.422 195.035 114.738C198.789 114.075 202.459 115.159 205.44 117.471C214.594 124.57 240.448 169.413 245.341 181.176C246.193 183.226 246.698 185.233 246.972 187.437C242.729 192.159 236.75 196.429 231.77 200.411C226.578 204.62 221.462 208.921 216.425 213.314C191.688 234.675 182.449 253.433 168.189 281.217C159.86 278.167 151.667 270.689 145.65 264.289C143.423 261.919 140.885 258.392 138.737 256.304C128.749 265.562 117.655 275.054 105.754 281.937C103.463 283.262 98.0319 285.476 97.125 287.96C98.017 296.571 132.499 326.77 140.816 333.756C143.457 335.974 147.214 340.151 149.843 342.404C149.451 348.422 148.429 354.42 147.801 360.413C144.668 390.333 145.046 419.434 150.055 449.179C154.661 476.567 164.513 503.905 183.046 525.134C202.4 547.304 230.538 563.283 260.194 565.753C284.878 568.254 309.394 559.222 328.194 543.386C335.029 537.626 340.924 529.513 341.551 520.122C342.616 504.169 336.912 502.986 325.397 494.649C315.43 487.432 303.703 472.25 304.068 458.955C305.538 430.568 346.247 428.972 367.27 429.47C380.797 429.793 395.715 432.137 405.406 442.057C420.503 458.037 410.193 478.046 396.177 490.391C388.297 497.33 374.679 502.955 374.114 514.69C373.536 526.756 383.088 538.5 391.999 545.416C411.296 560.092 437.814 565.861 461.746 562.858C492.778 558.962 520.519 541.136 539.327 516.398C564.608 483.152 568.356 443.41 568.02 402.948C567.948 394.238 567.508 374.981 566.486 366.801C566.37 366.635 566.254 366.465 566.133 366.299C563.417 362.579 559.951 359.428 556.881 355.994C551.018 349.428 545.267 342.587 540.062 335.48C518.865 306.528 503.616 270.113 494.252 235.657C492.024 227.458 490.976 218.914 488.824 210.644C488.389 208.969 487.932 207.315 487.139 205.77C485.87 203.3 479.294 195.009 479.581 193.24C480.918 184.909 506.946 144.959 514.589 139.41C515.544 138.715 516.333 138.407 517.517 138.233C526.701 141.446 530.789 178.033 531.914 187.206L536.562 225.198C541.308 261.218 556.222 328.518 595.205 342.96C600.961 345.092 605.824 344.427 611.347 341.984C628.232 333.269 641.065 300.302 646.439 283.815C655.207 256.913 665.557 215.721 660.591 187.997C655.472 159.431 618.769 127.281 597.424 108.85C584.246 97.4673 566.746 82.2485 550.484 76.8391C535.199 71.7265 518.498 72.968 504.141 80.2864C477.954 93.6037 461.423 122.752 445.461 146.484C441.185 152.838 436.348 161.963 431.162 167.294C421.503 164.699 413.143 161.678 402.945 159.371C372.707 152.197 343.06 152.879 312.916 160.081C310.306 160.705 298.885 163.33 297.499 162.499C293.018 159.814 284.143 140.904 281.612 136.715C267.113 112.709 252.245 87.9412 230.922 69.4651Z M358.941 554.485C352.984 556.237 349.48 560.854 344.896 564.781C329.437 578.026 308.093 587.556 288.303 591.81C301.223 608.44 325.349 618.915 345.852 621.237C349.323 621.631 354.566 622.169 358.054 621.896C385.907 620.551 409.763 612.03 428.876 590.945L429.333 590.434L428.684 590.156C423.78 588.089 418.49 587.139 413.362 585.552C404.366 582.768 395.496 579.29 387.262 574.678C383.34 572.482 379.87 569.478 376.369 566.999C372.07 563.96 363.782 554.897 358.941 554.485Z" fill="#1C1C1C"/>
<path fill-rule="evenodd" clip-rule="evenodd" d="M266.466 245.397C312.022 242.458 351.312 277.05 354.172 322.61C357.028 368.172 322.366 407.403 276.8 410.178C231.351 412.943 192.242 378.388 189.392 332.945C186.542 287.501 221.027 248.329 266.466 245.397ZM295.256 330.46C292.867 316.947 279.912 307.979 266.423 310.502C253.122 312.99 244.306 325.726 246.661 339.052C249.017 352.377 261.665 361.319 275.013 359.096C288.549 356.841 297.645 343.973 295.256 330.46Z" fill="#1C1C1C"/>
<path d="M442.225 311.884C455.923 310.865 467.846 321.163 468.833 334.864C469.814 348.565 459.487 360.459 445.784 361.409C432.13 362.355 420.288 352.072 419.306 338.419C418.325 324.769 428.58 312.9 442.225 311.884Z" fill="#1C1C1C"/>
</svg>